G75*
%MOIN*%
%OFA0B0*%
%FSLAX25Y25*%
%IPPOS*%
%LPD*%
%AMOC8*
5,1,8,0,0,1.08239X$1,22.5*
%
%ADD10C,0.00500*%
%ADD11C,0.05300*%
%ADD12R,0.08200X0.08200*%
%ADD13C,0.08200*%
%ADD14C,0.00790*%
%ADD15R,0.03556X0.02769*%
D10*
X0019000Y0005800D02*
X0019000Y0038300D01*
X0001500Y0038300D01*
X0001500Y0060800D01*
X0071500Y0060800D01*
X0071500Y0038300D01*
X0054000Y0038300D01*
X0054000Y0005800D01*
X0019000Y0005800D01*
D11*
X0026500Y0009500D03*
X0031500Y0009500D03*
X0036500Y0009500D03*
X0041500Y0009500D03*
X0046500Y0009500D03*
D12*
X0046500Y0018300D03*
D13*
X0036500Y0018300D03*
X0026500Y0018300D03*
X0021500Y0055800D03*
X0011500Y0055800D03*
X0031500Y0055800D03*
X0041500Y0055800D03*
X0051500Y0055800D03*
X0061500Y0055800D03*
D14*
X0057873Y0045076D02*
X0057873Y0041524D01*
X0057873Y0045076D02*
X0061033Y0045076D01*
X0061033Y0041524D01*
X0057873Y0041524D01*
X0057873Y0042313D02*
X0061033Y0042313D01*
X0061033Y0043102D02*
X0057873Y0043102D01*
X0057873Y0043891D02*
X0061033Y0043891D01*
X0061033Y0044680D02*
X0057873Y0044680D01*
X0051967Y0045076D02*
X0051967Y0041524D01*
X0051967Y0045076D02*
X0055127Y0045076D01*
X0055127Y0041524D01*
X0051967Y0041524D01*
X0051967Y0042313D02*
X0055127Y0042313D01*
X0055127Y0043102D02*
X0051967Y0043102D01*
X0051967Y0043891D02*
X0055127Y0043891D01*
X0055127Y0044680D02*
X0051967Y0044680D01*
D15*
X0041756Y0043300D03*
X0036638Y0043300D03*
X0025256Y0043300D03*
X0020138Y0043300D03*
M02*
